<svg width="146" height="11" viewBox="0 0 146 11" fill="none" xmlns="http://www.w3.org/2000/svg">
<path id="Vector" d="M9.08639 1.23187C12.0044 -0.730506 14.2397 0.225083 16.4922 2.17039C17.2089 2.7847 18.5399 2.9724 20.7071 4.67882H139.269C139.729 2.9724 140.924 2.1192 142.357 2.1192C144.183 2.1192 145.651 3.41607 145.651 5.24193C145.651 7.06779 144.166 8.56944 142.357 8.56944C140.924 8.56944 139.712 8.10871 139.269 6.40229H20.69C18.5228 6.40229 17.1918 7.80155 16.4751 8.41586C14.2227 10.3782 11.9873 10.8902 9.06932 8.94485C3.62587 5.27606 0.383686 5.10542 -0.00878906 5.08836C0.383686 5.08836 3.62587 4.90065 9.06932 1.24893L9.08639 1.23187Z" fill="#FFD390"/>
</svg>
