<svg width="54" height="13" viewBox="0 0 54 13" fill="none" xmlns="http://www.w3.org/2000/svg">
<path id="Vector" d="M53.5181 4.76092C53.5181 4.76092 53.3474 4.6244 52.8355 4.41963C52.5795 4.31725 52.2383 4.21487 51.7775 4.11248C51.3168 4.0101 50.7195 3.85652 50.037 3.87358C49.3374 3.87358 48.5012 3.85652 47.5286 3.94184C46.59 4.07835 45.4638 4.21486 44.2523 4.50495C41.795 5.03394 38.8429 6.02366 35.3106 6.99631C34.867 7.11576 34.4233 7.23521 33.9796 7.35466C33.536 7.47411 33.0923 7.50824 32.6486 7.61062C32.205 7.69594 31.7442 7.78126 31.3006 7.86658C30.8228 7.90071 30.345 7.93484 29.8501 7.98603C27.8707 8.10548 25.8059 8.13961 23.7582 8.05429C19.6287 7.84952 15.5163 7.21815 12.0011 6.16017C8.45173 5.15339 5.55082 3.68588 3.62257 2.37194C3.14478 2.03066 2.73524 1.7235 2.35983 1.45048C1.98442 1.17745 1.7114 0.887362 1.47251 0.682593C0.977646 0.25599 0.72168 0.0170898 0.72168 0.0170898C0.72168 0.0170898 0.926446 0.307182 1.31892 0.819106C1.52369 1.07507 1.74552 1.41635 2.05268 1.7747C2.3769 2.11598 2.73524 2.52552 3.14478 2.96918C4.81707 4.6756 7.56438 6.79155 11.1137 8.46383C14.646 10.1873 18.912 11.5012 23.3316 12.2009C25.55 12.5422 27.8024 12.7128 30.0378 12.7299C30.601 12.7299 31.1641 12.6957 31.7272 12.6957C32.2903 12.6104 32.8534 12.5422 33.4165 12.4739C33.9626 12.3886 34.5428 12.3203 35.0547 12.2009C35.5666 12.0644 36.0785 11.9449 36.5734 11.8084C40.5323 10.7163 43.3308 9.43649 45.5321 8.51502C46.6242 8.02016 47.5627 7.66181 48.3647 7.25228C49.1667 6.91099 49.8663 6.63797 50.4465 6.34788C51.0267 6.04073 51.5045 5.88715 51.914 5.69944C52.3065 5.5288 52.6137 5.35816 52.8526 5.22165C53.3303 4.94862 53.501 4.77798 53.501 4.77798L53.5181 4.76092Z" fill="#FFD390"/>
</svg>
