<svg width="54" height="13" viewBox="0 0 54 13" fill="none" xmlns="http://www.w3.org/2000/svg">
<path id="Vector" d="M0.49707 4.76089C0.49707 4.76089 0.667707 4.93153 1.1455 5.20456C1.3844 5.34107 1.69156 5.49465 2.1011 5.68235C2.49358 5.87006 2.97137 6.02364 3.56862 6.33079C4.1488 6.62088 4.84841 6.89391 5.65043 7.23519C6.46951 7.62766 7.39097 8.00307 8.48308 8.49793C10.6843 9.4194 13.4829 10.7163 17.4417 11.7913C17.9366 11.9278 18.4485 12.0473 18.9605 12.1838C19.4724 12.3032 20.0525 12.3715 20.5986 12.4568C21.1617 12.5251 21.7248 12.6104 22.288 12.6786C22.8511 12.6786 23.4142 12.6957 23.9773 12.7128C26.2127 12.7128 28.4652 12.5251 30.6835 12.1838C35.1031 11.4842 39.3862 10.1702 42.9014 8.44674C46.4508 6.77446 49.1981 4.65851 50.8704 2.9521C51.2799 2.50843 51.6382 2.11595 51.9625 1.75761C52.2696 1.41632 52.4914 1.05798 52.6962 0.802016C53.0887 0.273028 53.2935 0 53.2935 0C53.2935 0 53.0204 0.2389 52.5426 0.665503C52.2867 0.870272 52.0136 1.16036 51.6553 1.43339C51.2799 1.70641 50.8533 2.01357 50.3926 2.35485C48.4643 3.66879 45.5634 5.1363 42.0141 6.14308C38.4989 7.20106 34.3694 7.83243 30.2569 8.0372C28.1921 8.12252 26.1274 8.10546 24.165 7.96894C23.6872 7.93482 23.1924 7.90069 22.7146 7.84949C22.2538 7.76417 21.8101 7.67885 21.3665 7.59353C20.9228 7.50821 20.4791 7.45702 20.0355 7.33757C19.5747 7.21812 19.1311 7.09867 18.7045 6.97922C15.1722 6.00657 12.2201 5.01685 9.76289 4.48786C8.55133 4.19777 7.42511 4.06126 6.48658 3.92475C5.51392 3.83943 4.67778 3.83943 3.97815 3.85649C3.29559 3.85649 2.69834 3.99301 2.2376 4.09539C1.77687 4.19778 1.4356 4.31722 1.17964 4.40254C0.667714 4.59025 0.49707 4.74383 0.49707 4.74383V4.76089Z" fill="#FFD390"/>
</svg>
