<svg width="146" height="11" viewBox="0 0 146 11" fill="none" xmlns="http://www.w3.org/2000/svg">
<path id="Vector" d="M136.93 1.23187C134.029 -0.730506 131.777 0.225083 129.524 2.17039C128.807 2.7847 127.476 2.9724 125.309 4.67882H6.76478C6.30404 2.9724 5.10956 2.1192 3.67617 2.1192C1.85031 2.1192 0.382812 3.41607 0.382812 5.24193C0.382812 7.06779 1.86738 8.56944 3.67617 8.56944C5.10956 8.56944 6.32111 8.10871 6.76478 6.40229H125.309C127.476 6.40229 128.807 7.80155 129.524 8.41586C131.777 10.3782 134.012 10.8902 136.93 8.94485C142.373 5.27606 145.616 5.10542 146.008 5.08836C145.616 5.08836 142.373 4.90065 136.93 1.24893V1.23187Z" fill="#FFD390"/>
</svg>
